g Photo_Curveable
v 0.5 0.375 0
v 0.5 0.5 0
v -0.5 0.5 0
v -0.5 0.375 0
v 0.5 0.25 0
v -0.5 0.25 0
v 0.5 0.125 0
v -0.5 0.125 0
v 0.5 0 0
v -0.5 0 0
v 0.5 -0.125 0
v -0.5 -0.125 0
v 0.5 -0.25 0
v -0.5 -0.25 0
v 0.5 -0.375 0
v -0.5 -0.375 0
v 0.5 -0.5 0
v -0.5 -0.5 0
vt 0.0001 0.874925
vt 0.0001 0.9999
vt 0.999899 0.9999
vt 0.999899 0.874925
vt 0.0001 0.74995
vt 0.999899 0.74995
vt 0.0001 0.624975
vt 0.999899 0.624975
vt 0.0001 0.5
vt 0.999899 0.5
vt 0.0001 0.375025
vt 0.999899 0.375025
vt 0.0001 0.25005
vt 0.999899 0.25005
vt 0.0001 0.125075
vt 0.999899 0.125075
vt 0.0001 0.0001
vt 0.999899 0.0001
vn 0 0 -1
vn 0 0 -1
vn 0 0 -1
vn 0 0 -1
vn 0 0 -1
vn 0 0 -1
vn 0 0 -1
vn 0 0 -1
vn 0 0 -1
vn 0 0 -1
vn 0 0 -1
vn 0 0 -1
vn 0 0 -1
vn 0 0 -1
vn 0 0 -1
vn 0 0 -1
vn 0 0 -1
vn 0 0 -1
g Photo_Curveable_0
f 3/3/3 2/2/2 1/1/1
f 4/4/4 3/3/3 1/1/1
f 4/4/4 1/1/1 5/5/5
f 6/6/6 4/4/4 5/5/5
f 6/6/6 5/5/5 7/7/7
f 8/8/8 6/6/6 7/7/7
f 8/8/8 7/7/7 9/9/9
f 10/10/10 8/8/8 9/9/9
f 10/10/10 9/9/9 11/11/11
f 12/12/12 10/10/10 11/11/11
f 12/12/12 11/11/11 13/13/13
f 14/14/14 12/12/12 13/13/13
f 14/14/14 13/13/13 15/15/15
f 16/16/16 14/14/14 15/15/15
f 16/16/16 15/15/15 17/17/17
f 18/18/18 16/16/16 17/17/17
